<?xml version="1.0" encoding="UTF-8"?>
<svg width="16px" height="16px" viewBox="0 0 16 16" version="1.1" xmlns="http://www.w3.org/2000/svg" xmlns:xlink="http://www.w3.org/1999/xlink">
    <!-- Generator: Sketch 64 (93537) - https://sketch.com -->
    <title>favicon</title>
    <desc>Created with Sketch.</desc>
    <g id="favicon" stroke="none" stroke-width="1" fill="none" fill-rule="evenodd">
        <path d="M5.08007812,12 L7.95117188,3.46875 L5.65429688,3.46875 L3.95507812,9.6796875 L2.26171875,3.46875 L-0.017578125,3.46875 L2.83007812,12 L5.08007812,12 Z M11.3789062,12 C12.1171875,11.9960938 12.7861328,11.8193359 13.3857422,11.4697266 C13.9853516,11.1201172 14.4501953,10.6357422 14.7802734,10.0166016 C15.1103516,9.39746094 15.2753906,8.69726562 15.2753906,7.91601562 L15.2753906,7.91601562 L15.2753906,7.5234375 C15.2714844,6.75 15.1005859,6.05175781 14.7626953,5.42871094 C14.4248047,4.80566406 13.9550781,4.32324219 13.3535156,3.98144531 C12.7519531,3.63964844 12.0742188,3.46875 11.3203125,3.46875 L11.3203125,3.46875 L8.57226562,3.46875 L8.57226562,12 L11.3789062,12 Z M11.34375,10.4179688 L10.6289062,10.4179688 L10.6289062,5.05664062 L11.3203125,5.05664062 C11.9257812,5.05664062 12.3867188,5.265625 12.703125,5.68359375 C13.0195312,6.1015625 13.1777344,6.72265625 13.1777344,7.546875 L13.1777344,7.546875 L13.1777344,7.91601562 C13.1777344,8.74414062 13.0195312,9.36816406 12.703125,9.78808594 C12.3867188,10.2080078 11.9335938,10.4179688 11.34375,10.4179688 L11.34375,10.4179688 Z" id="VD" fill="#404040" fill-rule="nonzero"></path>
    </g>
</svg>