<?xml version="1.0" encoding="UTF-8"?>
<svg width="38px" height="34px" viewBox="0 0 38 34" version="1.1" xmlns="http://www.w3.org/2000/svg" xmlns:xlink="http://www.w3.org/1999/xlink">
    <!-- Generator: Sketch 64 (93537) - https://sketch.com -->
    <title>porfolio</title>
    <desc>Created with Sketch.</desc>
    <g id="Page-1" stroke="none" stroke-width="1" fill="none" fill-rule="evenodd">
        <g id="mon-cv-sketch" transform="translate(-453.000000, -809.000000)" fill="#EDC545" fill-rule="nonzero">
            <g id="div-right-side" transform="translate(447.000000, 99.000000)">
                <g id="section-two" transform="translate(1.000000, 704.000000)">
                    <g id="div-title-exp-pro" transform="translate(0.500000, 0.000000)">
                        <g id="porfolio" transform="translate(4.500000, 5.700000)">
                            <path d="M34.4873657,6.44462703 L33.0401001,6.44462703 C32.7281494,6.44462703 32.4756317,6.69638265 32.4756317,7.00674653 C32.4756317,7.31711033 32.7281494,7.56857726 33.0401001,7.56857726 L34.4873657,7.56857726 C35.8018493,7.56857726 36.8713532,8.63334183 36.8713532,9.94177812 L36.8713532,19.7206938 C36.5307007,19.9141298 36.1877289,20.1009256 35.8427277,20.2828133 C35.8418579,20.2833907 35.8406982,20.283968 35.8395386,20.2845455 C33.1015625,21.7269435 30.2258758,22.8000807 27.2397308,23.495007 L27.2397308,18.7841167 C27.2397308,17.1038212 25.8666839,15.7364879 24.1790771,15.7364879 L13.8209229,15.7364879 C12.1333161,15.7364879 10.7602692,17.1038212 10.7602692,18.7841167 L10.7602692,23.4952957 C7.39607241,22.7123127 4.17219545,21.4503587 1.12864683,19.7206938 L1.12864683,9.94177812 C1.12864683,8.63334183 2.1978607,7.56857726 3.51176451,7.56857726 L30.7825165,7.56857726 C31.0941772,7.56857726 31.346695,7.31711033 31.346695,7.00674653 C31.346695,6.69638265 31.0941772,6.44462703 30.7825165,6.44462703 L28.5939331,6.44462703 L28.5939331,3.84218994 C28.5939331,1.88906297 26.99823,0.3 25.0369415,0.3 L12.9624787,0.3 C11.0014801,0.3 9.405777,1.88906297 9.405777,3.84218994 L9.405777,6.44462703 L3.51176451,6.44462703 C1.5754089,6.44462703 0,8.01348022 0,9.94177812 L0,20.0452045 C0,20.2452809 0.106689453,20.4303443 0.28034975,20.5308156 C0.626220703,20.7314695 0.974700891,20.925483 1.32521059,21.1142997 L1.32521059,23.7360804 C1.32521059,24.0464442 1.57772823,24.2981998 1.88938902,24.2981998 C2.2010498,24.2981998 2.45385742,24.0464442 2.45385742,23.7360804 L2.45385742,21.6983611 C6.4445648,23.6783382 10.7098236,24.910555 15.1713562,25.3687386 L15.1713562,27.2851994 C15.1713562,28.5292532 16.1875153,29.5411837 17.4364777,29.5411837 L20.5629425,29.5411837 C21.8121948,29.5411837 22.8283539,28.5292532 22.8283539,27.2851994 L22.8283539,25.3681612 C27.2884369,24.910555 31.5536957,23.6786269 35.5452728,21.6986499 L35.5452728,30.8112215 C35.5452728,32.1150384 34.4801178,33.1760498 33.1705628,33.1760498 L4.82856752,33.1760498 C3.51901241,33.1760498 2.45385742,32.1150384 2.45385742,30.8112215 L2.45385742,25.9842695 C2.45385742,25.6739057 2.2010498,25.4221501 1.88938902,25.4221501 C1.57772823,25.4221501 1.32521059,25.6739057 1.32521059,25.9842695 L1.32521059,30.8112215 C1.32521059,32.7349 2.89685059,34.3 4.82856752,34.3 L33.1705628,34.3 C35.1025696,34.3 36.6742096,32.7349 36.6742096,30.8112215 L36.6742096,21.1145884 C37.0247192,20.9257717 37.3734894,20.7314695 37.7196503,20.5308156 C37.8933105,20.4300556 38,20.2452809 38,20.0452045 L38,9.94177812 C38,8.01348022 36.4243011,6.44462703 34.4873657,6.44462703 L34.4873657,6.44462703 Z M24.3504181,1.42395022 C24.1065979,2.48582773 23.1501618,3.28035921 22.0110778,3.28035921 L15.9883423,3.28035921 C14.8492584,3.28035921 13.8928223,2.48582773 13.6487122,1.42395022 L24.3504181,1.42395022 Z M10.5344238,3.84218994 C10.5344238,2.66367344 11.38591,1.67974782 12.5081787,1.46725684 C12.7853394,3.13109586 14.2401429,4.40430943 15.9883423,4.40430943 L22.0113678,4.40430943 C23.7595672,4.40430943 25.2140808,3.13109586 25.4912415,1.46725684 C26.6138001,1.67974782 27.4652863,2.66338467 27.4652863,3.84218994 L27.4652863,6.44462703 L10.5347137,6.44462703 L10.5347137,3.84218994 L10.5344238,3.84218994 Z M21.699707,27.2851994 C21.699707,27.9093916 21.189743,28.4172335 20.5629425,28.4172335 L17.4367676,28.4172335 C16.8099671,28.4172335 16.3000031,27.9093916 16.3000031,27.2851994 L16.3000031,22.5465928 C16.3000031,21.9224005 16.8099671,21.4148474 17.4367676,21.4148474 L20.5629425,21.4148474 C21.189743,21.4148474 21.699707,21.9224005 21.699707,22.5465928 L21.699707,27.2851994 Z M20.5629425,20.2906084 L17.4367676,20.2906084 C16.1875153,20.2906084 15.1713562,21.3028277 15.1713562,22.5465928 L15.1713562,24.2378593 C14.0644531,24.1206428 12.9700165,23.9546342 11.8892059,23.7392561 L11.8892059,18.7841167 C11.8892059,17.723394 12.7557679,16.8604382 13.8209229,16.8604382 L24.1790771,16.8604382 C25.2442321,16.8604382 26.111084,17.723394 26.111084,18.7841167 L26.111084,23.7389674 C25.0299835,23.9540568 23.9355469,24.1200654 22.8283539,24.2372819 L22.8283539,22.5465928 C22.8283539,21.3028277 21.8121948,20.2906084 20.5629425,20.2906084 L20.5629425,20.2906084 Z" id="Shape"></path>
                            <path d="M20.4613398,22.3 L18.5389371,22.3 C18.2413729,22.3 18,22.5644523 18,22.8911465 L18,26.7088535 C18,27.0352441 18.2413729,27.3 18.5389371,27.3 L20.4613398,27.3 C20.7589039,27.3 21,27.0352441 21,26.7088535 L21,22.8911465 C21,22.5644523 20.7589039,22.3 20.4613398,22.3 Z M19.9224027,26.1180107 L19.0775973,26.1180107 L19.0775973,23.4819893 L19.9224027,23.4819893 L19.9224027,26.1180107 Z" id="Shape"></path>
                        </g>
                    </g>
                </g>
            </g>
        </g>
    </g>
</svg>