<?xml version="1.0" encoding="UTF-8"?>
<svg width="65px" height="65px" viewBox="0 0 65 65" version="1.1" xmlns="http://www.w3.org/2000/svg" xmlns:xlink="http://www.w3.org/1999/xlink">
    <!-- Generator: Sketch 64 (93537) - https://sketch.com -->
    <title>ico-bike</title>
    <desc>Created with Sketch.</desc>
    <g id="Page-1" stroke="none" stroke-width="1" fill="none" fill-rule="evenodd">
        <g id="mon-cv-sketch" transform="translate(-160.000000, -1580.000000)">
            <g id="aside">
                <g id="loisirs" transform="translate(0.000000, 1500.000000)">
                    <g id="ico-bike" transform="translate(160.000000, 80.000000)">
                        <g>
                            <circle id="Oval-Copy" stroke="#494949" stroke-width="2" cx="32.5" cy="32.5" r="31.5"></circle>
                            <g id="bike" transform="translate(10.000000, 13.000000)" fill="#494949" fill-rule="nonzero">
                                <path d="M33.599901,24.5997272 C32.9380718,24.602174 32.278876,24.6812519 31.6361288,24.8353037 L30.0718479,19.8164469 L34.9997832,19.8164469 C34.9983387,20.5706428 34.3724355,21.1816882 33.599901,21.1830984 L32.2000188,21.1830984 L32.2000188,22.5497499 L33.599901,22.5497499 C35.1454486,22.5480553 36.3979295,21.325306 36.3996654,19.8164469 L36.3996654,16.3998181 C36.3996891,16.0427197 36.1180633,15.7458196 35.7533573,15.7184569 L27.3004312,15.0839035 L27.3004312,10.9156164 C27.9027466,11.3676548 28.6405353,11.6139288 29.4002545,11.6165378 C31.332149,11.6143256 32.8976939,10.0859439 32.8999599,8.19990906 L32.8999599,4.78328028 C32.8999599,2.14154753 30.7063398,0 28.0003723,0 C25.2944048,0 23.1007847,2.14154753 23.1007847,4.78328028 C23.1048606,4.81523688 23.1114122,4.84684585 23.120383,4.87783548 C23.1194768,4.90149986 23.1198857,4.9251948 23.1216079,4.94881595 L23.6066671,6.84282411 C20.7521162,6.89303728 17.9390274,7.51888031 15.3440375,8.6810558 L14.0237736,9.2809304 C11.4540889,10.4418315 9.8072147,12.9522266 9.80190398,15.7164924 C9.80190398,15.7164924 9.81065324,17.1291829 9.8135405,17.1530993 C9.87064585,18.2312779 10.3602781,19.2441556 11.1765008,19.9725868 L14.1049668,22.5713601 L12.1738293,25.4832674 C8.93559933,23.8904054 5.01579774,24.5070922 2.45405893,27.0124402 C-0.107679876,29.5177881 -0.732438804,33.3456237 0.904869974,36.5041663 C2.54217875,39.6627089 6.07154638,41.4381721 9.65649738,40.9067091 C13.2414484,40.3752462 16.071834,37.6569603 16.674888,34.1662877 L17.6006476,34.1662877 C17.9179403,35.3699835 19.0278899,36.2125973 20.3010203,36.216265 C20.3937597,36.2119567 20.4862137,36.2030334 20.578022,36.1895299 L21.0265967,37.7657916 C21.1107342,38.0615186 21.3865169,38.2661968 21.7009025,38.2662423 L26.6004901,38.2662423 C26.8049547,38.2644761 26.998051,38.1741315 27.1275458,38.0196471 C29.6115534,40.9549426 33.8386633,41.8343341 37.3326252,40.1426722 C40.826587,38.4510103 42.6677146,34.6335768 41.7774715,30.9266326 C40.8872284,27.2196885 37.4999457,24.5989813 33.599901,24.5997272 Z M24.8506374,8.19990906 C25.4302277,8.20052105 25.8999222,8.65906579 25.900549,9.22489769 L25.900549,11.6165378 L23.8007258,11.6165378 L23.8007258,9.22489769 C23.8013526,8.65906579 24.2710471,8.20052105 24.8506374,8.19990906 Z M25.900549,6.83325755 L25.0471459,6.83325755 L24.6971753,5.46660604 L25.900549,5.46660604 L25.900549,6.83325755 Z M22.4568389,22.7211793 L22.597352,22.5497499 L25.4816343,22.5497499 C25.387914,22.7978463 25.2518348,23.0286569 25.0791682,23.2323923 L23.0755868,25.4398762 L22.4568389,22.7211793 Z M23.7172578,21.1830984 L24.7942921,19.8687213 C25.2051693,20.2077981 25.4898526,20.6698461 25.604124,21.1830984 L23.7172578,21.1830984 Z M22.657547,17.6694374 L17.7129006,16.4309094 L17.4725584,16.1291357 L17.4191004,15.7050467 L17.4605719,15.0334228 L22.4008436,15.0334228 L22.4008436,16.4000744 C22.4021272,16.8353622 22.4892826,17.2663339 22.657547,17.6694374 L22.657547,17.6694374 Z M23.4790153,19.2859299 L21.9243587,21.1830984 L21.4991445,21.1830984 L21.0286091,20.5925341 L19.1173324,18.1935482 L23.4790153,19.2859299 Z M19.4924134,32.3743514 L19.6134157,32.7996362 L19.0917846,32.7996362 C19.1932574,32.6319838 19.3297633,32.4870769 19.4924134,32.3743514 Z M18.8755028,25.1001779 C18.8401751,24.9760035 18.7697015,24.8640692 18.6721699,24.777221 L18.1154543,24.283689 L20.4103861,22.0428076 L21.0518821,22.8482778 L23.6281028,34.1662877 L21.4551357,34.1662877 L18.8755028,25.1001779 Z M23.4507552,27.08746 L26.1346793,24.130624 C26.534392,23.6755398 26.8162696,23.1333694 26.9565851,22.5497499 L28.6189452,22.5497499 L23.7362437,28.3409357 L23.4507552,27.08746 Z M29.0344478,21.1830984 L27.0204548,21.1830984 C27.0095182,21.104943 27.0023438,21.026873 26.9863326,20.9488885 C26.9025526,20.5503258 26.7526273,20.1678056 26.5424825,19.8164469 L28.6084461,19.8164469 L29.0344478,21.1830984 Z M34.9997832,17.0324069 L34.9997832,18.4497954 L25.900549,18.4497954 C24.7413883,18.4485244 23.8020276,17.5314624 23.8007258,16.3998181 L23.8007258,12.9831893 L25.900549,12.9831893 L25.900549,15.7164924 C25.9005252,16.0735908 26.1821511,16.3704909 26.5468571,16.3978535 L34.9997832,17.0324069 Z M31.5000777,8.19990906 C31.5000777,9.33208024 30.5599548,10.2498863 29.4002545,10.2498863 C28.2405541,10.2498863 27.3004312,9.33208024 27.3004312,8.19990906 L27.3004312,5.46660604 L28.7003134,5.46660604 L28.7003134,6.83325755 L30.1001956,6.83325755 L30.1001956,5.46660604 L31.5000777,5.46660604 L31.5000777,8.19990906 Z M28.0003723,1.36665151 C29.6628391,1.36860142 31.095301,2.51019962 31.4300836,4.09995453 L24.5715359,4.09995453 C24.9062519,2.51051332 26.3382342,1.36900612 28.0003723,1.36665151 Z M14.6119866,10.520825 L15.932513,9.92086497 C18.0400399,8.97763724 20.3043062,8.41256668 22.6169504,8.25269597 C22.475253,8.5581812 22.401594,8.88955173 22.4008436,9.22489769 L22.4008436,13.6665151 L16.8013149,13.6665151 C16.4310166,13.6665949 16.1248527,13.9482327 16.1027737,14.3090975 L16.0576275,15.0331666 L11.2437826,15.0331666 C11.4910615,13.0613829 12.7650811,11.3545945 14.6119866,10.520825 L14.6119866,10.520825 Z M11.2017862,16.9383642 L11.2017862,16.3998181 L16.0962117,16.3998181 L16.1065358,16.4832693 C16.1218751,16.6058604 16.1710143,16.7220871 16.2487114,16.819551 L19.544034,20.9555509 L18.3112628,22.1594001 L17.0783166,23.362993 L12.1184465,18.960923 C11.5353681,18.4424267 11.2026684,17.7083439 11.2017862,16.9383642 Z M8.4020218,39.632922 C5.52235401,39.6409485 2.93150065,37.9263604 1.87277597,35.3119363 C0.814051284,32.6975121 1.50353916,29.7168514 3.61036401,27.8003314 C5.71718887,25.8838115 8.81135138,25.4225907 11.4080063,26.6380025 L10.6421833,27.792823 C8.49264818,26.8735858 5.98400711,27.3604017 4.35797606,29.0123087 C2.73194501,30.6642156 2.33351008,33.1307376 3.35988682,35.1910066 C4.38626356,37.2512756 6.61969124,38.4681755 8.95467775,38.2393706 C11.2896643,38.0105658 13.2308083,36.3846004 13.817291,34.1662877 L15.2603946,34.1662877 C14.5910012,37.3454755 11.7265972,39.6286072 8.4020218,39.632922 L8.4020218,39.632922 Z M15.4014327,32.7996362 L14.0015505,32.7996362 C14.0003951,31.1169953 13.2039424,29.529028 11.8431947,28.4963069 L12.6043806,27.3482342 C14.3631944,28.6346612 15.399361,30.6541305 15.4014327,32.7996362 L15.4014327,32.7996362 Z M7.08726995,33.80925 C7.20963036,34.0293297 7.44558273,34.1663538 7.70208071,34.1662877 L12.356689,34.1662877 C11.7905955,35.741479 10.304197,36.8254393 8.59639633,36.9084917 C6.88859562,36.991544 5.29921146,36.0571627 4.57557043,34.5446927 C3.8519294,33.0322227 4.13802184,31.2426158 5.29932741,30.0173431 C6.46063299,28.7920704 8.26607473,28.3749371 9.86673602,28.9620788 L7.11456766,33.1119161 C6.97505373,33.3218501 6.96457506,33.5895332 7.08726995,33.80925 L7.08726995,33.80925 Z M8.98883491,32.7996362 L11.0811338,29.6451483 C12.0442851,30.422804 12.6018077,31.5794356 12.6016684,32.7996362 L8.98883491,32.7996362 Z M13.3660915,26.2001615 L15.1549659,23.5032456 L15.2677439,23.6032674 L18.7386643,31.2212391 C18.1725842,31.5923189 17.7667969,32.1543997 17.5991602,32.7996362 L16.8013149,32.7996362 C16.7988331,30.1910913 15.5229213,27.7399122 13.3660915,26.2001615 L13.3660915,26.2001615 Z M19.0958967,34.1662877 L20.002233,34.1662877 L20.1936668,34.8390219 C19.736657,34.8047573 19.3261615,34.5531979 19.0958967,34.1662877 L19.0958967,34.1662877 Z M25.900549,36.8995908 L22.2330327,36.8995908 L21.8441279,35.5329392 L24.2887597,35.5329392 L25.900549,36.5819297 L25.900549,36.8995908 Z M25.122827,34.4332973 L24.1215613,30.0343877 L29.7227523,23.3907531 L30.3048408,25.2583678 C26.5594348,26.8049318 24.4969121,30.7579764 25.4177647,34.6249701 L25.122827,34.4332973 Z M33.599901,39.6328952 C30.3032396,39.6349527 27.4525755,37.3895857 26.757653,34.2434976 C26.0627305,31.0974095 27.712199,27.9046642 30.7167562,26.580176 L31.1286715,27.9016426 C28.5350709,29.1700812 27.3967327,32.1871784 28.5278348,34.7950044 C29.658937,37.4028304 32.6704439,38.7044395 35.4084241,37.7688769 C38.1464042,36.8333143 39.6691462,33.982361 38.8875335,31.2551151 C38.1059208,28.5278692 35.2887843,26.8623502 32.4510352,27.4497935 L32.043582,26.142933 C34.6644797,25.5577366 37.3970396,26.4903602 39.0735877,28.5422764 C40.7501359,30.5941925 41.0741214,33.4024544 39.9070991,35.7670394 C38.7400769,38.1316243 36.288472,39.63428 33.599901,39.6328952 L33.599901,39.6328952 Z M32.8616381,28.7671601 C35.011138,28.3920659 37.0965506,29.6873206 37.6593508,31.747031 C38.222151,33.8067413 37.0746275,35.9439297 35.0193512,36.6638593 C32.964075,37.3837889 30.6865448,36.4463407 29.7796516,34.5071605 C28.8727584,32.5679803 29.6389794,30.273845 31.5424242,29.2292592 L32.9304074,33.6818098 L34.2690447,33.2841142 L32.8616381,28.7671601 Z" id="Shape"></path>
                            </g>
                        </g>
                    </g>
                </g>
            </g>
        </g>
    </g>
</svg>