<?xml version="1.0" encoding="UTF-8"?>
<svg width="43px" height="36px" viewBox="0 0 43 36" version="1.1" xmlns="http://www.w3.org/2000/svg" xmlns:xlink="http://www.w3.org/1999/xlink">
    <!-- Generator: Sketch 64 (93537) - https://sketch.com -->
    <title>student</title>
    <desc>Created with Sketch.</desc>
    <g id="Page-1" stroke="none" stroke-width="1" fill="none" fill-rule="evenodd">
        <g id="mon-cv-sketch" transform="translate(-451.000000, -351.000000)" fill="#EDC545" fill-rule="nonzero">
            <g id="div-right-side" transform="translate(447.000000, 99.000000)">
                <g id="section-one" transform="translate(1.000000, 247.000000)">
                    <g id="div-title-formation" transform="translate(0.500000, 0.000000)">
                        <g id="student" transform="translate(2.500000, 5.000000)">
                            <path d="M42.5889359,8.17871985 L28.9913407,2.87588079 C28.6616364,2.74735362 28.2925644,2.91648606 28.1669159,3.25340863 C28.0412674,3.59066675 28.2066117,3.96819451 28.5363159,4.09672176 L40.5687179,8.78914034 L32.2391739,12.0378927 L21.7634354,7.18607353 C21.4419327,7.03707582 21.063675,7.18305325 20.9183426,7.51158633 C20.7726822,7.84045497 20.91539,8.22737897 21.2365646,8.3763766 L30.557846,12.6936164 L21.5,16.2259341 L2.43128206,8.78914034 L21.5,1.35234656 L26.1991882,3.18528582 C26.5282364,3.31347743 26.8976364,3.14468063 27.023613,2.8074225 C27.1492615,2.47049985 26.9839172,2.0929721 26.654213,1.96444493 L21.7276764,0.042912408 C21.5810318,-0.0141361906 21.4189682,-0.0144718353 21.2723236,0.042912408 L0.411064127,8.17871985 C0.163703939,8.27536697 0,8.51832706 0,8.78914034 L0,11.7724487 C0,12.0432619 0.163703939,12.286222 0.411064127,12.3828692 L6.92543034,14.9232117 L6.92543034,17.1870359 C6.92543034,17.5477847 7.21117399,17.8404107 7.56384277,17.8404107 C7.9168396,17.8404107 8.20258333,17.5477847 8.20258333,17.1870359 L8.20258333,15.4215483 L21.2723236,20.5186766 C21.3458099,20.5472009 21.4229049,20.5616309 21.5,20.5616309 C21.5770951,20.5616309 21.6541901,20.5472009 21.7276764,20.5186766 L31.5794373,16.6766184 L31.5794373,27.0151746 C28.4864502,28.6759612 25.018158,29.56592 21.5,29.56592 C16.6984558,29.56592 11.9887695,27.910167 8.20258333,24.8969921 L8.20258333,19.8001993 C8.20258333,19.4394505 7.9168396,19.1468246 7.56384277,19.1468246 C7.21117399,19.1468246 6.92543034,19.4394505 6.92543034,19.8001993 L6.92543034,25.2134443 C6.92543034,25.4117721 7.0133514,25.5993615 7.16458895,25.7231906 C11.216507,29.0437571 16.3077316,30.8723339 21.5,30.8723339 C25.0017547,30.8723339 28.4569245,30.0394237 31.5794373,28.4793111 L31.5794373,31.1233479 C30.5503006,31.4109401 29.7914886,32.3750622 29.7914886,33.517713 C29.7914886,34.8862092 30.8800049,36 32.2178498,36 C33.5560226,36 34.6445389,34.8862092 34.6445389,33.517713 C34.6445389,32.3750622 33.8857269,31.4109401 32.8565903,31.1233479 L32.8565903,27.7893581 C33.8975373,27.1836358 34.8948517,26.494354 35.8357391,25.7231906 C35.9869766,25.5993615 36.0752258,25.4117721 36.0752258,25.2134443 L36.0752258,14.922876 L42.5889359,12.3825336 C42.8362961,12.286222 43,12.0432619 43,11.7721131 L43,8.78914034 C43,8.51832706 42.8362961,8.27536697 42.5889359,8.17871985 L42.5889359,8.17871985 Z M33.3673859,33.517713 C33.3673859,34.1657184 32.8516693,34.6932506 32.2178498,34.6932506 C31.5843582,34.6932506 31.0686417,34.1657184 31.0686417,33.517713 C31.0686417,32.8693719 31.5843582,32.3418398 32.2178498,32.3418398 C32.8516693,32.3418398 33.3673859,32.8693719 33.3673859,33.517713 Z M1.27715299,9.73749007 L20.8612594,17.3752964 L20.8612594,18.9599064 L1.27715299,11.3221 L1.27715299,9.73749007 Z M22.1387406,18.9599064 L22.1387406,17.3752964 L31.5794373,13.69331 L31.5794373,15.2782555 L22.1387406,18.9599064 Z M34.7977448,24.8966565 C34.1747513,25.3926441 33.5261688,25.8510466 32.8565903,26.2718643 L32.8565903,16.1782817 L34.7977448,15.4212126 L34.7977448,24.8966565 Z M32.8565903,14.7799189 L32.8565903,13.1953089 L41.722847,9.73749007 L41.722847,11.3221 L32.8565903,14.7799189 Z" id="Shape"></path>
                        </g>
                    </g>
                </g>
            </g>
        </g>
    </g>
</svg>