<?xml version="1.0" encoding="UTF-8"?>
<svg width="65px" height="65px" viewBox="0 0 65 65" version="1.1" xmlns="http://www.w3.org/2000/svg" xmlns:xlink="http://www.w3.org/1999/xlink">
    <!-- Generator: Sketch 64 (93537) - https://sketch.com -->
    <title>ico-pingpong</title>
    <desc>Created with Sketch.</desc>
    <g id="Page-1" stroke="none" stroke-width="1" fill="none" fill-rule="evenodd">
        <g id="mon-cv-sketch" transform="translate(-256.000000, -1580.000000)">
            <g id="aside">
                <g id="loisirs" transform="translate(0.000000, 1500.000000)">
                    <g id="ico-pingpong" transform="translate(256.000000, 80.000000)">
                        <g>
                            <circle id="Oval-Copy-2" stroke="#494949" stroke-width="2" cx="32.5" cy="32.5" r="31.5"></circle>
                            <g id="ping-pong" transform="translate(32.102824, 39.921101) rotate(-345.000000) translate(-32.102824, -39.921101) translate(6.602824, 16.421101)" fill="#494949" fill-rule="nonzero">
                                <path d="M23.5952815,1.30849353 C26.642313,0.0438661184 29.985906,-0.314399498 33.2920732,0.278670914 C36.7986107,0.907655217 40.0117605,2.56875451 42.5842938,5.08239934 C48.3994142,10.7641078 49.5996671,19.5383405 45.6121747,26.3079451 C45.5864582,26.3518277 45.5598661,26.3951646 45.5337118,26.4387197 C45.5032897,26.489152 45.4736335,26.5400209 45.4426642,26.5902348 L45.4426642,26.5902348 L50.3644968,31.3987996 C50.0823633,31.8832344 49.7872655,32.3591895 49.4796787,32.8261897 L44.5007808,27.9618398 C44.2454754,28.2972908 43.9783512,28.6241181 43.6983141,28.9397019 C43.5361355,29.1225462 43.3102674,29.2157695 43.0834143,29.2157695 C42.8900475,29.2157695 42.6959147,29.1479806 42.5397549,29.0101106 C42.200296,28.7104643 42.1686701,28.1930423 42.4690617,27.8544256 C42.9213451,27.3448632 43.3386103,26.8047357 43.7174648,26.2405929 C43.7506227,26.1911431 43.7827958,26.1412566 43.8152972,26.0914793 C43.8529419,26.0339516 43.8905866,25.9764239 43.9274653,25.9184595 C43.9594195,25.8681364 43.9907171,25.8174858 44.0220147,25.7669444 C44.0600971,25.7054869 44.0978513,25.6439202 44.1349488,25.5819169 C44.1618691,25.537161 44.1884612,25.4922959 44.2148343,25.4472125 C44.2604676,25.3691626 44.3053348,25.2907851 44.3495454,25.2120802 C45.5885374,23.0079062 46.2297009,20.5806075 46.2967829,18.1391179 L46.2967829,18.1391179 L30.9933393,32.9904394 C31.4932258,32.9895661 31.9930029,32.9654416 32.4908102,32.9169742 C35.1311916,32.6597915 37.6589671,31.7315975 39.8008845,30.2328203 C40.124804,30.0063117 40.5642839,30.0421164 40.8466191,30.3180748 L40.8466191,30.3180748 L46.8875492,36.21997 C46.5259685,36.6305654 46.1535177,37.0313575 45.7706468,37.4218964 L40.1750334,31.9540671 C37.9287176,33.3913869 35.3417392,34.2846494 32.6503624,34.5467444 C29.8909188,34.815389 27.0773062,34.4159698 24.4861694,33.3940067 C23.63796,33.8023771 22.7519965,34.140448 21.8359392,34.4038529 C21.8147093,34.4119308 21.7932606,34.4195721 21.7709364,34.4259034 C21.731322,34.4370378 21.6912697,34.4469714 21.6515458,34.4578875 C21.6287839,34.4641097 21.6059126,34.4700043 21.5831507,34.4762265 C21.4232702,34.5194542 21.2627331,34.5601711 21.1014299,34.5987049 C21.0826076,34.6031805 21.0641135,34.6085294 21.0451817,34.6130049 L21.0451817,34.6130049 L21.1242084,46.4385128 C20.5723158,46.3870861 20.0246918,46.3209547 19.4817321,46.2405144 L19.4056678,34.9127604 C18.9871988,34.9682141 18.5664318,35.0093677 18.14468,35.033383 C18.1288123,35.0343655 18.1128352,35.0348021 18.0970769,35.0348021 C17.6652573,35.0348021 17.3033648,34.6983687 17.2784143,34.2628172 C17.2525883,33.8114375 17.5985036,33.4245717 18.0510059,33.3988098 C18.7298142,33.3600577 19.4056678,33.275349 20.0717819,33.1467576 C20.2477489,33.1128086 20.4226217,33.0755848 20.5965095,33.0355228 C20.6181771,33.0305014 20.6397353,33.0250434 20.6614028,33.020022 C20.8148269,32.9839989 20.9674848,32.9456835 21.1191579,32.9049665 C21.1441085,32.8983077 21.1690591,32.8916489 21.1940096,32.8848809 C23.7968557,32.1728253 26.1350946,30.7823355 28.0139369,28.9067353 L28.0139369,28.9067353 L6.38574695,28.9789998 C8.55064515,31.1163675 11.3344922,32.6234409 14.4791373,33.1855097 C14.8682784,33.2551542 15.1524739,33.5915877 15.1551003,33.9859855 L15.1551003,33.9859855 L15.2305964,45.294912 C14.6757262,45.1288383 14.1274952,44.9473932 13.5863979,44.751071 L13.5181033,34.6635464 C5.69993503,32.9388064 0.055966732,25.8991381 0.000401101745,17.6661243 C-0.0304847456,12.992843 1.7232765,8.5863506 4.93916203,5.25847565 C8.15997202,1.92547015 12.4609877,0.0730120414 17.0499197,0.0424470285 L17.0499197,0.0424470285 L17.1653707,0.0421195462 C19.4042452,0.0421195462 21.5782262,0.477670981 23.5952815,1.30849353 Z M33.0014211,1.89010206 C30.5088827,1.44297959 27.9940202,1.59187486 25.6318156,2.31331833 C26.9293538,3.06630926 28.1386896,3.99766887 29.2294009,5.09659024 C32.489497,8.38123753 34.3022423,12.7638237 34.3335399,17.4372142 C34.3355097,17.7334765 34.3293815,18.0439297 34.3153741,18.3600593 C34.295348,18.8118757 33.9118974,19.1651199 33.4591762,19.1417595 C33.0063455,19.1218922 32.6553963,18.7395021 32.6754224,18.2877949 C32.688226,17.9991738 32.6939165,17.7165566 32.6920561,17.4480211 C32.6637132,13.2050515 31.0197125,9.22756091 28.0629625,6.24856375 C26.6705466,4.84562966 25.0656132,3.74463422 23.3235612,2.97505086 C23.2806637,2.96053248 23.2390795,2.94284844 23.1991367,2.92156209 C21.2826497,2.09532429 19.2038747,1.66741411 17.0608629,1.67985844 C12.9175391,1.70747611 9.03236592,3.38189302 6.1209209,6.39483917 C3.20433257,9.41302504 1.61384425,13.4120203 1.6419214,17.6552083 C1.66659059,21.2853494 2.88654131,24.658526 4.94605626,27.3465006 L4.94605626,27.3465006 L29.4465145,27.26463 C30.7402225,25.5576832 31.7042112,23.5725948 32.2323312,21.405317 C32.3394654,20.965945 32.7825566,20.6962087 33.2237874,20.8030771 C33.6643617,20.9099455 33.9346593,21.3528107 33.8275252,21.7920736 C32.7504929,26.2117745 30.0336185,29.9497664 26.3914943,32.320629 C27.1788594,32.5552154 27.9825298,32.7287811 28.7942982,32.8402342 L28.7942982,32.8402342 L46.2036561,15.9448775 C45.801602,12.3902756 44.1873668,8.94068643 41.4355835,6.25194773 C39.0992049,3.96906875 36.1826166,2.46090368 33.0014211,1.89010206 Z" id="Combined-Shape"></path>
                                <path d="M15.5,9 C14.4921794,9 13.524609,9.22565172 12.6239833,9.67080292 C12.2368092,9.86214807 12.0779979,10.3311783 12.2694473,10.7184567 C12.4606882,11.1054223 12.9296142,11.2644421 13.3171011,11.0729927 C14.0003128,10.7353493 14.7347237,10.5641293 15.5001043,10.5641293 C18.2217935,10.5641293 20.435975,12.7783107 20.435975,15.5001043 C20.435975,18.2216893 18.2217935,20.4358707 15.5001043,20.4358707 C12.778415,20.4358707 10.5641293,18.2216893 10.5641293,15.5001043 C10.5641293,14.5745568 10.822732,13.6715328 11.3119917,12.8888425 C11.5409802,12.5225235 11.4296142,12.0400417 11.0633994,11.8111575 C10.6970803,11.5820647 10.2145985,11.6934307 9.98571429,12.0597497 C9.34087591,13.0913452 9,14.2810219 9,15.5001043 C9,19.0841502 11.9158498,22 15.5,22 C19.0841502,22 22,19.0841502 22,15.5001043 C22,11.9159541 19.0840459,9 15.5,9 L15.5,9 Z" id="Path"></path>
                            </g>
                        </g>
                    </g>
                </g>
            </g>
        </g>
    </g>
</svg>