<?xml version="1.0" encoding="UTF-8"?>
<svg width="65px" height="65px" viewBox="0 0 65 65" version="1.1" xmlns="http://www.w3.org/2000/svg" xmlns:xlink="http://www.w3.org/1999/xlink">
    <!-- Generator: Sketch 64 (93537) - https://sketch.com -->
    <title>Combined Shape</title>
    <desc>Created with Sketch.</desc>
    <g id="Symbols" stroke="none" stroke-width="1" fill="none" fill-rule="evenodd">
        <g id="ico-swim" fill="#494949">
            <g id="Group">
                <g id="Combined-Shape-2">
                    <path d="M32.5,0 C50.4492544,0 65,14.5507456 65,32.5 C65,50.4492544 50.4492544,65 32.5,65 C14.5507456,65 0,50.4492544 0,32.5 C0,14.5507456 14.5507456,0 32.5,0 Z M37.2494667,59.8185152 C34.5727833,58.5084085 31.4272167,58.5084085 28.7505333,59.8185152 C26.1784905,61.0767111 23.2448298,61.3243678 20.5299148,60.5614588 C24.2050349,62.1311627 28.2510535,63 32.5,63 C36.4084992,63 40.145287,62.2648161 43.5795483,60.9263577 C41.43208,61.1582099 39.2332167,60.7889291 37.2494667,59.8185152 Z M54.7650038,53.344301 C52.3665358,52.5332731 49.7183118,52.6913445 47.4172,53.8185152 C44.2148167,55.3850621 40.45185,55.3850621 37.2494667,53.8185152 C34.5727833,52.5084085 31.4272167,52.5084085 28.7505333,53.8185152 C25.54815,55.3850621 21.7851833,55.3850621 18.5828,53.8185152 C16.044515,52.5761478 13.0845806,52.511911 10.5029058,53.6277117 C11.6183162,54.7887284 12.8247606,55.8616334 14.1107602,56.834948 L14.1107602,56.834948 L14.3333333,57 C16.0746708,57 17.8160083,57.3916367 19.4172,58.1749101 C22.0941167,59.4839833 25.2392167,59.4839833 27.9161333,58.1749101 C31.1185167,56.6083633 34.8814833,56.6083633 38.0838667,58.1749101 C40.7607833,59.4839833 43.9058833,59.4839833 46.5828,58.1749101 C47.857583,57.5513098 49.2211974,57.175948 50.6031498,57.048863 C52.0831135,55.9556701 53.4607046,54.7318414 54.718896,53.394404 L54.718896,53.394404 Z M55.9161526,48.7901045 C53.2397128,47.4412602 50.0936914,47.4412602 47.4172516,48.7901045 C44.2148804,50.4018413 40.451928,50.4018413 37.2495568,48.7901045 C34.5728837,47.4422054 31.4273289,47.4422054 28.7506558,48.7901045 C25.5482846,50.4018413 21.7853322,50.4018413 18.582961,48.7901045 C15.9062878,47.4422054 12.7607331,47.4422054 10.0840599,48.7901045 C9.21223644,49.2288687 8.29162852,49.5516194 7.34465023,49.7520477 C7.9256991,50.5976593 8.54828024,51.4125075 9.2094509,52.1936494 L9.2094509,52.1936494 L9.24946667,52.1749101 C12.45185,50.6083633 16.2148167,50.6083633 19.4172,52.1749101 C22.0941167,53.4839833 25.2392167,53.4839833 27.9161333,52.1749101 C31.1185167,50.6083633 34.8814833,50.6083633 38.0838667,52.1749101 C40.7607833,53.4839833 43.9058833,53.4839833 46.5828,52.1749101 C49.5586733,50.7191678 53.0186325,50.6162007 56.063409,51.866701 C56.6786157,51.1190483 57.258932,50.3416045 57.8013165,49.5362822 C57.1544091,49.3450789 56.5234453,49.0957378 55.9161526,48.7901045 Z M25.8508001,23.6574803 C23.5182923,22.1811479 20.4457706,22.899287 18.9880261,25.2614188 L18.9880261,25.2614188 L11.391655,37.5702146 C11.3356552,37.660366 11.2653055,37.7404743 11.1835224,37.8074676 L11.1835224,37.8074676 L7.22247081,41.015581 L8.95006425,43.3484107 L13.7044462,40.1421877 L22.0110813,29.8542954 C22.0306813,29.8300739 22.0514478,29.8067976 22.0733811,29.7845846 C22.4378464,29.4153538 23.0287608,29.4152357 23.3933428,29.7843483 L23.3933428,29.7843483 L29.9266513,36.4009641 C30.2909999,36.7700767 30.2909999,37.3684079 29.9266513,37.7375205 L29.9266513,37.7375205 L20.3077545,47.4752885 C22.7869117,48.4215827 25.5430346,48.2815704 27.9162589,47.0886891 C31.1186301,45.4769523 34.8815825,45.4769523 38.0839537,47.0886891 C40.7606268,48.4365882 43.9061816,48.4365882 46.5828547,47.0886891 C47.5982009,46.5840539 48.6827301,46.2366816 49.8000425,46.0583875 L49.8000425,46.0583875 L26.6002639,24.2386791 C26.3691481,24.0213941 26.1181991,23.8267947 25.8508001,23.6574803 Z M32.5,2 C15.6553151,2 2,15.6553151 2,32.5 C2,38.1691077 3.54669744,43.4769649 6.24278011,48.0260801 C7.28634162,47.8862294 8.30268642,47.5719662 9.24966311,47.0934152 C12.1254855,45.650993 15.4678562,45.500465 18.4588282,46.6784589 L18.4588282,46.6784589 L27.9470588,37.0692423 L22.802545,31.8581848 L15.0559077,41.4475515 C14.9973413,41.5204524 14.9285082,41.5841373 14.8515085,41.6365977 L14.8515085,41.6365977 L9.25152977,45.417521 C8.839348,45.6960096 8.28413344,45.5997142 7.98686791,45.1982274 L7.98686791,45.1982274 L5.18687853,41.4173041 C4.88424635,41.0089644 4.95657941,40.4309557 5.35021125,40.1119403 L5.35021125,40.1119403 L9.89272734,36.4321567 L17.4022988,24.2594741 C17.632248,23.8868169 17.8966136,23.5371996 18.1917792,23.2152304 C20.7646194,20.4094308 25.0963196,20.2472056 27.8667924,22.8529707 L27.8667924,22.8529707 L52.3022997,45.8286964 L52.2211,45.9175481 C53.7949274,45.9846595 55.3376048,46.3835469 56.7505495,47.0886891 C57.4225233,47.429231 58.1296022,47.6869598 58.85715,47.857525 C61.4908787,43.3471668 63,38.0998205 63,32.5 C63,15.6553151 49.3446849,2 32.5,2 Z M50.5,21 C54.0898571,21 57,23.9690526 57,27.6315789 L57,27.6315789 L57,32.3684211 C56.9959375,36.0291711 54.0881161,38.9958553 50.5,39 C46.9118839,38.9958553 44.0040625,36.0291711 44,32.3684211 L44,32.3684211 L44,27.6315789 C44,23.9690526 46.9101429,21 50.5,21 Z M49.7422857,29.5263158 L45.8571421,29.5263158 L45.8571421,32.3684211 C45.8558661,34.6752632 47.485625,36.6466184 49.7144286,37.0342105 C52.2385179,37.4731974 54.6336518,35.7414079 55.0639286,33.1661053 C54.7902321,33.2614342 54.5034196,33.3118816 54.2142857,33.3157895 L54.2142857,33.3157895 L52.3571421,33.3157895 C50.8186161,33.3157895 49.5714286,32.0433553 49.5714286,30.4736842 C49.5745625,30.1501579 49.63225,29.8297105 49.7422857,29.5263158 L49.7422857,29.5263158 Z M54.2142857,29.5263158 L52.3571429,29.5263158 C51.8443393,29.5263158 51.4285714,29.9505 51.4285714,30.4736842 C51.4285714,30.9968684 51.8443393,31.4210526 52.3571429,31.4210526 L52.3571429,31.4210526 L54.2142857,31.4210526 C54.7270893,31.4210526 55.1428571,30.9968684 55.1428571,30.4736842 C55.1428571,29.9505 54.7270893,29.5263158 54.2142857,29.5263158 L54.2142857,29.5263158 Z M50.5,22.8947368 C47.9371429,22.8978158 45.8601607,25.0168421 45.8571429,27.6315789 L45.8571429,27.6315789 L55.1428571,27.6315789 C55.1398393,25.0168421 53.0628571,22.8978158 50.5,22.8947368 Z" id="Combined-Shape"></path>
                </g>
            </g>
        </g>
    </g>
</svg>