<?xml version="1.0" encoding="UTF-8"?>
<svg width="38px" height="38px" viewBox="0 0 38 38" version="1.1" xmlns="http://www.w3.org/2000/svg" xmlns:xlink="http://www.w3.org/1999/xlink">
    <!-- Generator: Sketch 64 (93537) - https://sketch.com -->
    <title>pencil</title>
    <desc>Created with Sketch.</desc>
    <g id="Page-1" stroke="none" stroke-width="1" fill="none" fill-rule="evenodd">
        <g id="mon-cv-sketch" transform="translate(-454.000000, -1431.000000)" fill="#EDC545" fill-rule="nonzero">
            <g id="div-right-side" transform="translate(447.000000, 99.000000)">
                <g id="section-three" transform="translate(1.000000, 1327.000000)">
                    <g id="div-title-reco" transform="translate(0.500000, 0.000000)">
                        <g id="pencil" transform="translate(22.500000, 26.207107) rotate(-315.000000) translate(-22.500000, -26.207107) translate(16.000000, 2.707107)">
                            <path d="M11.7363145,0.353553391 L0.971109514,0.353553391 C0.629820163,0.353553391 0.353553391,0.659583664 0.353553391,1.03685725 L0.353553391,35.1897656 C0.353553391,35.3080364 0.381465531,35.4245526 0.434118018,35.5273815 L5.81640331,46.0078655 C5.92614873,46.2215954 6.13104926,46.3535534 6.35339481,46.3535534 C6.5754232,46.3535534 6.78032372,46.2215954 6.89006914,46.0078655 L9.16744604,41.5742871 C9.16808045,41.5732342 9.16839761,41.5721813 9.16903194,41.5711284 L12.2729888,35.5273815 C12.3259584,35.4245526 12.3535534,35.3083874 12.3535534,35.1897656 L12.3535534,1.03685725 C12.3535534,0.659583664 12.0772866,0.353553391 11.7363145,0.353553391 Z M11.1187584,33.5111614 C10.5852558,33.6550518 10.1015512,33.961784 9.69682513,34.3439709 L9.69682513,1.71981008 L11.1187584,1.71981008 L11.1187584,33.5111614 Z M3.05627322,1.71981008 L3.05627322,7.73302424 C3.05627322,8.11029782 3.33285716,8.41597707 3.67382935,8.41597707 C4.01480153,8.41597707 4.29138547,8.11029782 4.29138547,7.73302424 L4.29138547,1.71981008 L8.46203013,1.71981008 L8.46203013,34.3422161 C7.89522335,33.8066631 7.17363115,33.4216686 6.37686642,33.4216686 C5.58010169,33.4216686 4.85819217,33.8066631 4.29138547,34.3422161 L4.29138547,10.4655376 C4.29138547,10.088264 4.01480153,9.78258479 3.67382935,9.78258479 C3.33285716,9.78258479 3.05627322,10.088264 3.05627322,10.4655376 L3.05627322,34.3422161 C2.64012859,33.9487988 2.14056469,33.6364513 1.58834839,33.4985272 L1.58834839,1.71981008 L3.05627322,1.71981008 Z M6.35339481,44.2874981 L4.94192859,41.5391918 C5.39042597,41.3521343 5.86937296,41.2545696 6.35339481,41.2545696 C6.8377339,41.2545696 7.31668081,41.3517834 7.7651782,41.5391918 L6.35339481,44.2874981 Z M8.38051401,40.3406903 C7.74202383,40.0437847 7.05183272,39.8883129 6.35339481,39.8883129 C5.65527414,39.8883129 4.96508304,40.0437847 4.32659285,40.3410412 L1.58834839,35.0093761 L1.58834839,34.9272533 C2.17799238,35.1880108 2.69056077,35.7744518 2.94081846,36.3349224 C3.07942759,36.6451641 3.36013497,36.8378369 3.67382935,36.8378369 C3.98752372,36.8378369 4.26854826,36.6451641 4.40684023,36.3349224 C4.74178591,35.5849377 5.54616305,34.7875744 6.37686642,34.7875744 C7.20756972,34.7875744 8.01162969,35.5849377 8.34657537,36.3349224 C8.4851845,36.6451641 8.7658918,36.8378369 9.07926909,36.8378369 C9.39328063,36.8378369 9.67430509,36.6448132 9.8129143,36.3345715 C10.0549252,35.7930523 10.5484627,35.2217022 11.1187584,34.9500653 L11.1187584,35.0093761 L8.38051401,40.3406903 Z" id="Shape"></path>
                        </g>
                    </g>
                </g>
            </g>
        </g>
    </g>
</svg>